<mxfile host="app.diagrams.net" agent="Mozilla/5.0 (Windows NT 10.0; Win64; x64) AppleWebKit/537.36 (KHTML, like Gecko) Chrome/138.0.0.0 Safari/537.36" version="28.0.7">
  <diagram name="Page-1" id="uTFPUkssqYDLhDwklwzF">
    <mxGraphModel dx="1042" dy="596" grid="1" gridSize="10" guides="1" tooltips="1" connect="1" arrows="1" fold="1" page="1" pageScale="1" pageWidth="850" pageHeight="1100" math="0" shadow="0">
      <root>
        <mxCell id="0" />
        <mxCell id="1" parent="0" />
        <mxCell id="0fZzz6c-SlojqY8jt1bK-2" style="edgeStyle=orthogonalEdgeStyle;rounded=0;orthogonalLoop=1;jettySize=auto;html=1;exitX=0.5;exitY=1;exitDx=0;exitDy=0;" edge="1" parent="1" source="0fZzz6c-SlojqY8jt1bK-1">
          <mxGeometry relative="1" as="geometry">
            <mxPoint x="235" y="160" as="targetPoint" />
          </mxGeometry>
        </mxCell>
        <mxCell id="0fZzz6c-SlojqY8jt1bK-1" value="&lt;font style=&quot;font-size: 26px;&quot;&gt;Start&lt;/font&gt;" style="ellipse;whiteSpace=wrap;html=1;" vertex="1" parent="1">
          <mxGeometry x="110" y="40" width="250" height="80" as="geometry" />
        </mxCell>
        <mxCell id="0fZzz6c-SlojqY8jt1bK-4" style="edgeStyle=orthogonalEdgeStyle;rounded=0;orthogonalLoop=1;jettySize=auto;html=1;exitX=0.5;exitY=1;exitDx=0;exitDy=0;" edge="1" parent="1" source="0fZzz6c-SlojqY8jt1bK-3">
          <mxGeometry relative="1" as="geometry">
            <mxPoint x="235" y="280" as="targetPoint" />
          </mxGeometry>
        </mxCell>
        <mxCell id="0fZzz6c-SlojqY8jt1bK-3" value="&lt;font style=&quot;font-size: 19px;&quot;&gt;New User?&lt;/font&gt;" style="rhombus;whiteSpace=wrap;html=1;" vertex="1" parent="1">
          <mxGeometry x="115" y="160" width="240" height="80" as="geometry" />
        </mxCell>
        <mxCell id="0fZzz6c-SlojqY8jt1bK-6" style="edgeStyle=orthogonalEdgeStyle;rounded=0;orthogonalLoop=1;jettySize=auto;html=1;exitX=0.5;exitY=1;exitDx=0;exitDy=0;" edge="1" parent="1" source="0fZzz6c-SlojqY8jt1bK-5">
          <mxGeometry relative="1" as="geometry">
            <mxPoint x="240" y="400" as="targetPoint" />
          </mxGeometry>
        </mxCell>
        <mxCell id="0fZzz6c-SlojqY8jt1bK-5" value="&lt;font style=&quot;font-size: 19px;&quot;&gt;Recognize the face&lt;/font&gt;" style="shape=parallelogram;perimeter=parallelogramPerimeter;whiteSpace=wrap;html=1;fixedSize=1;" vertex="1" parent="1">
          <mxGeometry x="120" y="280" width="240" height="80" as="geometry" />
        </mxCell>
        <mxCell id="0fZzz6c-SlojqY8jt1bK-9" style="edgeStyle=orthogonalEdgeStyle;rounded=0;orthogonalLoop=1;jettySize=auto;html=1;exitX=0.5;exitY=1;exitDx=0;exitDy=0;" edge="1" parent="1" source="0fZzz6c-SlojqY8jt1bK-7">
          <mxGeometry relative="1" as="geometry">
            <mxPoint x="240" y="560" as="targetPoint" />
          </mxGeometry>
        </mxCell>
        <mxCell id="0fZzz6c-SlojqY8jt1bK-7" value="&lt;font style=&quot;font-size: 18px;&quot;&gt;Face Recognized&lt;/font&gt;" style="rhombus;whiteSpace=wrap;html=1;" vertex="1" parent="1">
          <mxGeometry x="115" y="410" width="250" height="90" as="geometry" />
        </mxCell>
        <mxCell id="0fZzz6c-SlojqY8jt1bK-11" style="edgeStyle=orthogonalEdgeStyle;rounded=0;orthogonalLoop=1;jettySize=auto;html=1;exitX=0.5;exitY=1;exitDx=0;exitDy=0;" edge="1" parent="1" source="0fZzz6c-SlojqY8jt1bK-10">
          <mxGeometry relative="1" as="geometry">
            <mxPoint x="240" y="700" as="targetPoint" />
          </mxGeometry>
        </mxCell>
        <mxCell id="0fZzz6c-SlojqY8jt1bK-10" value="&lt;font style=&quot;font-size: 20px;&quot;&gt;Stored in csv file with Registraction Number &amp;amp;Date Time of Entery&lt;/font&gt;" style="shape=parallelogram;perimeter=parallelogramPerimeter;whiteSpace=wrap;html=1;fixedSize=1;" vertex="1" parent="1">
          <mxGeometry x="120" y="560" width="240" height="80" as="geometry" />
        </mxCell>
        <mxCell id="0fZzz6c-SlojqY8jt1bK-12" value="&lt;font style=&quot;font-size: 28px;&quot;&gt;End&lt;/font&gt;" style="ellipse;whiteSpace=wrap;html=1;" vertex="1" parent="1">
          <mxGeometry x="115" y="700" width="250" height="80" as="geometry" />
        </mxCell>
        <mxCell id="0fZzz6c-SlojqY8jt1bK-13" value="&lt;font style=&quot;font-size: 15px;&quot;&gt;Give your photograph&lt;/font&gt;" style="rounded=0;whiteSpace=wrap;html=1;" vertex="1" parent="1">
          <mxGeometry x="590" y="175" width="210" height="50" as="geometry" />
        </mxCell>
        <mxCell id="0fZzz6c-SlojqY8jt1bK-14" value="&lt;font style=&quot;font-size: 16px;&quot;&gt;Store the face data in folder on your name&lt;/font&gt;" style="rounded=0;whiteSpace=wrap;html=1;" vertex="1" parent="1">
          <mxGeometry x="590" y="270" width="210" height="60" as="geometry" />
        </mxCell>
        <mxCell id="0fZzz6c-SlojqY8jt1bK-17" value="" style="endArrow=none;html=1;rounded=0;" edge="1" parent="1">
          <mxGeometry width="50" height="50" relative="1" as="geometry">
            <mxPoint x="360" y="200" as="sourcePoint" />
            <mxPoint x="580" y="200" as="targetPoint" />
          </mxGeometry>
        </mxCell>
        <mxCell id="0fZzz6c-SlojqY8jt1bK-19" value="" style="endArrow=classic;html=1;rounded=0;entryX=0;entryY=0.5;entryDx=0;entryDy=0;" edge="1" parent="1" source="0fZzz6c-SlojqY8jt1bK-5" target="0fZzz6c-SlojqY8jt1bK-14">
          <mxGeometry width="50" height="50" relative="1" as="geometry">
            <mxPoint x="360" y="350" as="sourcePoint" />
            <mxPoint x="410" y="300" as="targetPoint" />
          </mxGeometry>
        </mxCell>
        <mxCell id="0fZzz6c-SlojqY8jt1bK-25" value="" style="endArrow=classic;html=1;rounded=0;entryX=0.385;entryY=-0.02;entryDx=0;entryDy=0;entryPerimeter=0;" edge="1" parent="1" target="0fZzz6c-SlojqY8jt1bK-13">
          <mxGeometry width="50" height="50" relative="1" as="geometry">
            <mxPoint x="671" y="120" as="sourcePoint" />
            <mxPoint x="720" y="70" as="targetPoint" />
          </mxGeometry>
        </mxCell>
        <mxCell id="0fZzz6c-SlojqY8jt1bK-27" value="" style="endArrow=none;html=1;rounded=0;exitX=1;exitY=0.5;exitDx=0;exitDy=0;" edge="1" parent="1" source="0fZzz6c-SlojqY8jt1bK-7">
          <mxGeometry width="50" height="50" relative="1" as="geometry">
            <mxPoint x="440" y="480" as="sourcePoint" />
            <mxPoint x="850" y="440" as="targetPoint" />
          </mxGeometry>
        </mxCell>
        <mxCell id="0fZzz6c-SlojqY8jt1bK-28" value="" style="endArrow=none;html=1;rounded=0;" edge="1" parent="1">
          <mxGeometry width="50" height="50" relative="1" as="geometry">
            <mxPoint x="850" y="440" as="sourcePoint" />
            <mxPoint x="850" y="120" as="targetPoint" />
          </mxGeometry>
        </mxCell>
        <mxCell id="0fZzz6c-SlojqY8jt1bK-29" value="" style="endArrow=none;html=1;rounded=0;" edge="1" parent="1">
          <mxGeometry width="50" height="50" relative="1" as="geometry">
            <mxPoint x="850" y="120" as="sourcePoint" />
            <mxPoint x="670" y="120" as="targetPoint" />
          </mxGeometry>
        </mxCell>
        <mxCell id="0fZzz6c-SlojqY8jt1bK-30" value="yes" style="text;html=1;align=center;verticalAlign=middle;resizable=0;points=[];autosize=1;strokeColor=none;fillColor=none;" vertex="1" parent="1">
          <mxGeometry x="450" y="168" width="40" height="30" as="geometry" />
        </mxCell>
        <mxCell id="0fZzz6c-SlojqY8jt1bK-32" value="no" style="text;html=1;align=center;verticalAlign=middle;resizable=0;points=[];autosize=1;strokeColor=none;fillColor=none;" vertex="1" parent="1">
          <mxGeometry x="180" y="248" width="40" height="30" as="geometry" />
        </mxCell>
        <mxCell id="0fZzz6c-SlojqY8jt1bK-33" value="yes" style="text;html=1;align=center;verticalAlign=middle;resizable=0;points=[];autosize=1;strokeColor=none;fillColor=none;" vertex="1" parent="1">
          <mxGeometry x="170" y="368" width="40" height="30" as="geometry" />
        </mxCell>
        <mxCell id="0fZzz6c-SlojqY8jt1bK-34" value="no" style="text;html=1;align=center;verticalAlign=middle;resizable=0;points=[];autosize=1;strokeColor=none;fillColor=none;" vertex="1" parent="1">
          <mxGeometry x="470" y="420" width="40" height="30" as="geometry" />
        </mxCell>
      </root>
    </mxGraphModel>
  </diagram>
</mxfile>
